<?xml version="1.0" encoding="UTF-8"?>
<svg version="1.1" xmlns="http://www.w3.org/2000/svg" width="1254" height="1254">
<path d="M0 0 C413.82 0 827.64 0 1254 0 C1254 413.82 1254 827.64 1254 1254 C840.18 1254 426.36 1254 0 1254 C0 840.18 0 426.36 0 0 Z " fill="#FDFDFD" transform="translate(0,0)"/>
<path d="M0 0 C0.92153114 0.00041416 1.84306229 0.00082832 2.79251862 0.00125504 C44.29220832 0.02460202 85.09008558 1.90411834 126.40625 5.96875 C127.38034821 6.06146683 128.35444641 6.15418365 129.35806274 6.24971008 C149.79385703 8.3129233 168.04957672 14.95718001 181.5 31.1875 C184.66997698 35.60505746 187.43231405 40.27456745 190.18603516 44.95849609 C191.50629704 47.19818227 192.84913587 49.4227109 194.19921875 51.64453125 C201.05948462 62.95963851 207.73221461 74.38514049 214.41430664 85.8059082 C219.38604839 94.30142576 224.40766233 102.76363297 229.5 111.1875 C231.10612836 113.85298962 232.70956221 116.52009084 234.3125 119.1875 C234.67408203 119.78739746 235.03566406 120.38729492 235.40820312 121.00537109 C237.83045149 125.03455797 240.17951624 129.09927692 242.5 133.1875 C244.02380974 128.92083272 245.00410601 124.76610615 245.8125 120.3125 C247.25623558 113.44205983 249.04671724 108.06190877 254.52734375 103.5 C258.90644403 101.56652077 262.9540721 101.78629655 267.6875 101.875 C269.15038452 101.88974365 269.15038452 101.88974365 270.64282227 101.90478516 C278.976165 102.05001973 287.1644457 102.78223963 295.41699219 103.90966797 C297.48668756 104.18572438 299.557846 104.42735272 301.6328125 104.66015625 C313.67351763 106.08445437 322.23237642 107.74587387 330.5 117.1875 C334.76118633 123.45327667 335.2418964 129.78012817 334.5 137.1875 C333.22131729 143.58091356 329.58093251 150.02195491 324.19921875 153.8046875 C318.81716653 156.63382226 313.49308394 158.30942369 307.5 159.1875 C306.29472656 159.37183594 305.08945312 159.55617188 303.84765625 159.74609375 C290.43352185 161.59561357 277.01408693 161.39164029 263.5 161.1875 C267.26114796 166.15652383 270.99091579 170.92632221 275.5 175.25 C279.00133216 178.67784093 282.30102141 182.1592899 285.47265625 185.890625 C287.08913857 187.72201537 288.73421208 189.48190441 290.43359375 191.234375 C313.30257402 214.94946644 323.56483929 239.5994646 323.69287109 272.6003418 C323.70513733 274.38300949 323.70513733 274.38300949 323.71765137 276.20169067 C323.74227249 280.09668679 323.75912561 283.99167505 323.7734375 287.88671875 C323.7788077 289.23715531 323.78418521 290.58759184 323.78956985 291.93802834 C323.81113183 297.55470068 323.82986948 303.1713705 323.84119225 308.78807354 C323.85745798 316.79792505 323.89077521 324.80729408 323.94759309 332.81696385 C323.98634871 338.47501322 324.00583042 344.13293367 324.01111281 349.79111224 C324.01475319 353.16055573 324.02663639 356.52948047 324.05921555 359.89877892 C324.09081848 363.65384235 324.09091136 367.4076804 324.08349609 371.1628418 C324.09990143 372.26693893 324.11630676 373.37103607 324.13320923 374.5085907 C324.07887236 381.23688932 323.12137453 386.10037816 318.5 391.1875 C317.25467778 392.12348399 315.98538542 393.02900624 314.6875 393.890625 C312.19892362 395.88202359 311.56888851 396.72725917 311.08984375 399.92773438 C311.12683169 403.27514317 311.30262156 406.59588061 311.5 409.9375 C311.62780921 421.37916888 311.62780921 421.37916888 309.23681641 425.21289062 C305.87075193 428.43216431 301.81565174 430.29168599 297.59716797 432.16894531 C294.06534602 433.88428422 291.01438909 436.22416135 287.875 438.5625 C286.75823557 439.36257004 285.6410697 440.16208012 284.5234375 440.9609375 C281.54281687 443.06969011 281.54281687 443.06969011 279.21922302 445.29530334 C275.87308805 447.62374252 274.01618312 447.68862075 269.96899414 447.68920898 C268.66736832 447.69858994 267.36574249 447.70797089 266.02467346 447.71763611 C264.61149436 447.70715636 263.19832161 447.69578715 261.78515625 447.68359375 C260.32693917 447.68374884 258.86872167 447.68523953 257.4105072 447.68800354 C254.35820228 447.68938599 251.30636811 447.67685764 248.25415039 447.65405273 C244.35243232 447.62569324 240.45149751 447.62840035 236.54972172 447.64114285 C233.53927488 447.6481174 230.52900725 447.6402902 227.5185833 447.62788582 C226.08055752 447.62338674 224.64251239 447.62302097 223.20448494 447.62695122 C221.18975767 447.6298799 219.1750346 447.61113765 217.16040039 447.59155273 C216.01632217 447.58614975 214.87224396 447.58074677 213.6934967 447.57518005 C207.51080497 446.8246215 203.49014931 443.82470055 199.5 439.1875 C196.5 433.1875 196.5 433.1875 195.5 406.1875 C65.15 406.1875 -65.2 406.1875 -199.5 406.1875 C-199.83 415.4275 -200.16 424.6675 -200.5 434.1875 C-206.1187291 443.17746656 -206.1187291 443.17746656 -212.5 446.1875 C-213.16 446.5175 -213.82 446.8475 -214.5 447.1875 C-216.99918551 447.31159988 -219.47162569 447.37630407 -221.97216797 447.39624023 C-222.74322372 447.40602402 -223.51427948 447.4158078 -224.30870056 447.42588806 C-226.86984535 447.45588329 -229.43093722 447.47724987 -231.9921875 447.49609375 C-232.8690131 447.50266558 -233.7458387 447.5092374 -234.64923477 447.51600838 C-239.2990177 447.54863482 -243.94877756 447.57306641 -248.59863281 447.5925293 C-252.43198527 447.61027292 -256.26459243 447.64497527 -260.09765625 447.69506836 C-264.73607651 447.75561223 -269.37381102 447.78605326 -274.01260757 447.79570198 C-275.77231951 447.80420784 -277.53201558 447.82290418 -279.29150009 447.8524456 C-290.61322592 448.03215191 -300.15301235 447.47007917 -309.22360229 439.71360779 C-314.39474039 434.06081 -315.8824368 427.92975473 -315.79296875 420.50390625 C-315.78872391 419.80353745 -315.78447906 419.10316864 -315.78010559 418.38157654 C-315.76347156 416.17064 -315.7258518 413.96065543 -315.6875 411.75 C-315.67243326 410.24024765 -315.65874836 408.73048084 -315.64648438 407.22070312 C-315.61361921 403.54266566 -315.56194582 399.86517593 -315.5 396.1875 C-316.12181152 395.89472168 -316.74362305 395.60194336 -317.38427734 395.30029297 C-319.89255901 393.98102827 -321.28586964 392.4595024 -323.125 390.3125 C-323.71539062 389.63445312 -324.30578125 388.95640625 -324.9140625 388.2578125 C-327.7699489 384.52968493 -328.74982879 381.81790913 -328.76069641 377.10662842 C-328.76778122 376.08089722 -328.77486603 375.05516602 -328.78216553 373.99835205 C-328.77968811 372.8783783 -328.77721069 371.75840454 -328.7746582 370.60449219 C-328.77976913 369.42016602 -328.78488007 368.23583984 -328.79014587 367.015625 C-328.80167024 363.7669096 -328.80411329 360.51835232 -328.80158257 357.26962185 C-328.80051061 354.54700011 -328.80540318 351.82440168 -328.810188 349.10178494 C-328.82128855 342.66321645 -328.8217208 336.22470625 -328.81567383 329.78613281 C-328.80966467 323.18114701 -328.82186529 316.57637589 -328.8432439 309.97142673 C-328.8609842 304.27771118 -328.86684096 298.58406311 -328.86360615 292.89032102 C-328.8618091 289.50055954 -328.86426678 286.11095036 -328.87832069 282.72121429 C-328.99021322 248.65659763 -322.07481744 221.48665455 -298.5 196.1875 C-297.8817334 195.52105469 -297.2634668 194.85460937 -296.62646484 194.16796875 C-291.27219122 188.411891 -285.85679937 182.71432424 -280.43701172 177.02001953 C-278.4745353 174.95487456 -276.51810927 172.88414581 -274.5625 170.8125 C-273.96518066 170.18802979 -273.36786133 169.56355957 -272.75244141 168.92016602 C-269.48594877 165.46139532 -269.48594877 165.46139532 -267.5 161.1875 C-268.47453125 161.21070313 -269.4490625 161.23390625 -270.453125 161.2578125 C-280.33079925 161.41378831 -290.14307652 161.02269618 -300 160.375 C-301.17981445 160.30490723 -302.35962891 160.23481445 -303.57519531 160.16259766 C-316.15174022 159.27239576 -325.66366493 156.85129946 -334.203125 147.1640625 C-338.6847028 140.33370598 -338.409108 132.02043948 -337.5 124.1875 C-334.64356575 116.15377868 -328.88320758 110.86428762 -321.37109375 107.12890625 C-317.19381271 105.75921274 -312.97275175 105.21430838 -308.625 104.625 C-307.68462891 104.49569092 -306.74425781 104.36638184 -305.77539062 104.2331543 C-298.02394235 103.1994074 -290.31948089 102.44891824 -282.5 102.1875 C-281.64776855 102.15495117 -280.79553711 102.12240234 -279.91748047 102.08886719 C-277.09084184 101.9911416 -274.26530171 101.92831341 -271.4375 101.875 C-270.54417969 101.84510986 -269.65085937 101.81521973 -268.73046875 101.78442383 C-262.26210177 101.7274581 -258.65555341 103.09458785 -253.92578125 107.73046875 C-248.97613094 115.04205745 -247.5 125.48091716 -247.5 134.1875 C-246.84 134.1875 -246.18 134.1875 -245.5 134.1875 C-245.23985107 133.31706055 -244.97970215 132.44662109 -244.71166992 131.54980469 C-243.49145508 128.16378841 -242.00937381 125.443523 -240.11328125 122.390625 C-239.43007813 121.28074219 -238.746875 120.17085938 -238.04296875 119.02734375 C-237.67993652 118.4432373 -237.3169043 117.85913086 -236.94287109 117.25732422 C-234.99596152 114.12292596 -233.07009191 110.97566939 -231.14453125 107.828125 C-230.75133698 107.18597046 -230.3581427 106.54381592 -229.95303345 105.88220215 C-226.18877143 99.71519693 -222.58136991 93.46228086 -219 87.1875 C-211.0885248 73.36232182 -202.84476914 59.75392867 -194.5 46.1875 C-194.01241211 45.38731445 -193.52482422 44.58712891 -193.02246094 43.76269531 C-182.51618669 26.54074004 -169.92745293 13.69909675 -149.84375 8.640625 C-144.04223153 7.240595 -138.3054432 6.32117038 -132.375 5.6875 C-131.27099854 5.56713379 -130.16699707 5.44676758 -129.02954102 5.32275391 C-116.5251629 4.05434838 -103.98167937 3.31436893 -91.4375 2.5625 C-90.39938171 2.50006104 -89.36126343 2.43762207 -88.29168701 2.37329102 C-81.02952673 1.94191809 -73.7658161 1.55184324 -66.5 1.1875 C-65.51984924 1.13697479 -64.53969849 1.08644958 -63.52984619 1.03439331 C-42.36192153 -0.02586225 -21.18862589 -0.0153185 0 0 Z " fill="#1D2125" transform="translate(628.5,389.8125)"/>
<path d="M0 0 C3.68750602 0.01068702 7.37452068 0.00005908 11.06201172 -0.01269531 C31.08749444 -0.02523695 50.89439892 1.15833417 70.70654297 4.13574219 C71.88361816 4.31008789 73.06069336 4.48443359 74.2734375 4.6640625 C104.12112873 9.18089103 133.03824575 17.13360308 161.45654297 27.26074219 C162.57464355 27.65471191 163.69274414 28.04868164 164.84472656 28.45458984 C168.10078742 29.61346286 171.34269084 30.80470829 174.58154297 32.01074219 C175.56630615 32.36322021 176.55106934 32.71569824 177.56567383 33.07885742 C178.46036377 33.42247314 179.35505371 33.76608887 180.27685547 34.12011719 C181.45658936 34.56049316 181.45658936 34.56049316 182.66015625 35.00976562 C184.45654297 36.26074219 184.45654297 36.26074219 185.21777344 38.89453125 C185.29656738 39.67538086 185.37536133 40.45623047 185.45654297 41.26074219 C181.56546953 43.70416757 177.67072481 46.13903074 173.73779297 48.51464844 C150.05918101 62.57414704 150.05918101 62.57414704 132.13623047 82.79199219 C130.03437691 84.62989204 128.49801692 84.76363699 125.74951172 84.62060547 C120.37990554 83.77788832 115.20775828 82.02857032 110.01904297 80.44824219 C100.77572679 77.70781868 91.68581601 75.26566781 82.16748047 73.73339844 C79.45654297 73.26074219 79.45654297 73.26074219 77.45654297 72.26074219 C75.27756714 71.9093302 73.09092933 71.60498976 70.90185547 71.32324219 C70.24506805 71.23824463 69.58828064 71.15324707 68.91159058 71.06567383 C67.51469088 70.88577243 66.11755696 70.70768209 64.72021484 70.53125 C62.62387706 70.26609677 60.52847256 69.99438482 58.43310547 69.72167969 C46.18371796 68.15178599 34.098842 67.10527569 21.73779297 67.09277344 C19.96994446 67.08778084 19.96994446 67.08778084 18.16638184 67.08268738 C15.68563218 67.07765628 13.20487585 67.07527786 10.72412109 67.07543945 C6.99418529 67.07326414 3.26455122 67.05509749 -0.46533203 67.03613281 C-14.2871493 67.00277068 -27.8361448 67.45133143 -41.54345703 69.26074219 C-42.84025391 69.42711182 -44.13705078 69.59348145 -45.47314453 69.76489258 C-131.20096302 81.49900149 -209.15796447 120.58439044 -291.54345703 201.26074219 C-292.45369108 202.30868185 -293.3652769 203.35544812 -294.27783203 204.40136719 C-343.03227178 260.44104354 -375.15228034 330.00054791 -387.79345703 403.07324219 C-387.9184256 403.78870209 -388.04339417 404.50416199 -388.17214966 405.24130249 C-391.49645062 424.44399025 -392.92037083 443.26966002 -392.85595703 462.76074219 C-392.85513123 463.82135864 -392.85430542 464.8819751 -392.85345459 465.97473145 C-392.80336997 494.09698094 -390.93260248 521.95154927 -384.73095703 549.44824219 C-384.46742432 550.62370605 -384.2038916 551.79916992 -383.93237305 553.01025391 C-381.92850255 561.82583594 -379.69511647 570.54138701 -377.13916016 579.21191406 C-376.53789675 581.27986592 -375.96750135 583.35440126 -375.40283203 585.43261719 C-372.53337033 595.83335691 -368.77396318 605.75104446 -364.61279297 615.70019531 C-363.56897102 618.19964841 -362.54390354 620.70619385 -361.52001953 623.21386719 C-343.1037062 667.77969453 -317.2881448 708.13713768 -284.80908203 743.74902344 C-283.55980857 745.13399385 -282.31725506 746.52550874 -281.10571289 747.94360352 C-276.33873921 753.50613449 -271.24430196 758.71309205 -266.05541992 763.87915039 C-264.60821318 765.3209944 -263.16643677 766.76811334 -261.72509766 768.21582031 C-256.50168542 773.4433171 -251.17929314 778.48007379 -245.54345703 783.26074219 C-244.52204514 784.14940056 -243.50117571 785.03868297 -242.48095703 785.92871094 C-221.88458018 803.59448629 -199.29293737 819.13807761 -175.54345703 832.26074219 C-174.73247559 832.71336426 -173.92149414 833.16598633 -173.0859375 833.63232422 C-149.09859883 846.91672158 -123.73537214 857.21437314 -97.54345703 865.26074219 C-96.33044922 865.64359375 -95.11744141 866.02644531 -93.86767578 866.42089844 C-90.44529774 867.4530442 -87.00892634 868.38754041 -83.54345703 869.26074219 C-82.65561523 869.4847168 -81.76777344 869.70869141 -80.85302734 869.93945312 C-68.70558002 872.95962351 -56.54121631 875.5952475 -44.16845703 877.51074219 C-43.1974707 877.6615625 -42.22648437 877.81238281 -41.22607422 877.96777344 C-38.00264455 878.44058572 -34.77666965 878.85999661 -31.54345703 879.26074219 C-30.86167389 879.34728058 -30.17989075 879.43381897 -29.47744751 879.52297974 C-14.49138517 881.37861262 0.43033708 881.69875126 15.51904297 881.69824219 C17.35931061 881.70084045 17.35931061 881.70084045 19.23675537 881.70349121 C38.51374024 881.69158275 57.06051006 880.48122108 75.99609375 876.91015625 C79.17361615 876.31383837 82.35252755 875.78419886 85.54638672 875.28417969 C118.36141292 870.01519933 150.15596643 858.67382677 180.45654297 845.26074219 C181.2826709 844.89658203 182.10879883 844.53242187 182.95996094 844.15722656 C196.61511535 838.07591619 209.55983741 830.79890355 222.45654297 823.26074219 C223.41052979 822.70652588 223.41052979 822.70652588 224.38378906 822.14111328 C247.22103473 808.79625374 268.61690063 792.72200583 288.45654297 775.26074219 C289.18542725 774.62015869 289.91431152 773.9795752 290.6652832 773.31958008 C297.17251993 767.53643953 303.37722499 761.49106646 309.51904297 755.32324219 C310.47655917 754.36929941 311.43424082 753.41552266 312.39208984 752.46191406 C313.29121094 751.56150391 314.19033203 750.66109375 315.11669922 749.73339844 C315.9276001 748.92136963 316.73850098 748.10934082 317.57397461 747.27270508 C319.50579706 745.39935989 319.50579706 745.39935989 320.45654297 743.26074219 C319.8175708 743.17445557 319.17859863 743.08816895 318.52026367 742.99926758 C314.26318539 741.9730773 310.43240622 740.21531922 306.43701172 738.44433594 C305.5784407 738.06841812 304.71986969 737.69250031 303.83528137 737.30519104 C301.10279947 736.10752516 298.37340911 734.90298925 295.64404297 733.69824219 C293.78812309 732.88333362 291.93200545 732.06887528 290.07568359 731.25488281 C285.53366164 729.2620465 280.99439929 727.26304479 276.45654297 725.26074219 C278.00288694 721.93570273 279.11273953 720.53230242 282.32373047 718.70214844 C283.11658447 718.24066406 283.90943848 717.77917969 284.72631836 717.30371094 C286.01590454 716.57087891 286.01590454 716.57087891 287.33154297 715.82324219 C294.51140695 711.63417812 301.5719765 707.32605526 308.51904297 702.76074219 C318.0965564 696.48277056 327.75366159 690.34289943 337.45654297 684.26074219 C338.39014648 683.67534668 339.32375 683.08995117 340.28564453 682.48681641 C351.68016451 675.34597487 363.0939435 668.2369974 374.53344727 661.16845703 C381.08461058 657.11775183 387.61628171 653.03652832 394.14404297 648.94824219 C403.70190189 642.96460893 413.29109942 637.03356602 422.90258789 631.13647461 C428.17926874 627.89817513 433.44740889 624.64785975 438.69482422 621.36230469 C439.66846924 620.75402832 440.64211426 620.14575195 441.64526367 619.51904297 C443.47814751 618.37267481 445.30882873 617.22277513 447.13696289 616.06884766 C447.94367432 615.56498535 448.75038574 615.06112305 449.58154297 614.54199219 C450.28537109 614.09919922 450.98919922 613.65640625 451.71435547 613.20019531 C453.45654297 612.26074219 453.45654297 612.26074219 455.45654297 612.26074219 C452.46591059 630.09238772 449.25414056 647.87563949 445.92797852 665.64736938 C443.69553608 677.57579026 441.50049357 689.50812564 439.39233398 701.45922852 C438.13675151 708.54083878 436.83797862 715.61329202 435.51513672 722.68261719 C435.34258865 723.60472992 435.17004059 724.52684265 434.99226379 725.47689819 C434.28305174 729.26512995 433.57351799 733.05330124 432.86343384 736.84136963 C430.6732974 748.53746489 428.57784028 760.23628432 426.68505859 771.98461914 C425.74288671 777.76288259 424.57254053 783.43631463 423.17529297 789.12402344 C421.79967201 795.12741274 420.83250586 801.21106203 419.79736328 807.28076172 C419.05154727 811.6135467 418.25040105 815.93655054 417.45654297 820.26074219 C413.45820809 820.26074219 412.64496279 818.90260007 409.76904297 816.19824219 C406.77571552 813.40542471 403.76695002 810.65019439 400.67138672 807.97167969 C395.43800265 803.41428724 390.45474898 798.59846868 385.46044922 793.78222656 C384.3834375 792.75645508 384.3834375 792.75645508 383.28466797 791.70996094 C382.64432617 791.09467529 382.00398437 790.47938965 381.34423828 789.84545898 C379.46636854 788.26899074 377.68862984 787.2551536 375.45654297 786.26074219 C374.58964844 787.13287354 373.72275391 788.00500488 372.82958984 788.90356445 C369.58187505 792.1695162 366.3307397 795.43204518 363.07861328 798.69360352 C361.67730164 800.09991293 360.27689261 801.50712241 358.87744141 802.9152832 C356.85415259 804.95083875 354.82753168 806.9830275 352.80029297 809.01464844 C352.18536987 809.63473282 351.57044678 810.2548172 350.93688965 810.89369202 C346.6106986 815.22042765 342.09931414 819.27731166 337.45654297 823.26074219 C336.94011734 823.70999557 336.42369171 824.15924896 335.89161682 824.62211609 C326.72772812 832.58928073 317.16723524 839.97668507 307.45654297 847.26074219 C306.6847168 847.84291504 305.91289063 848.42508789 305.11767578 849.02490234 C294.18930485 857.25604875 283.10654023 865.08308953 271.45654297 872.26074219 C270.64942871 872.75896484 269.84231445 873.2571875 269.01074219 873.77050781 C214.68340808 907.07827593 154.44447041 929.26972992 91.62231445 939.72998047 C89.58860179 940.07094533 87.55663479 940.42258916 85.52709961 940.78759766 C77.19131279 942.26254754 68.82342001 943.16360325 60.39404297 943.88574219 C59.63297241 943.95111176 58.87190186 944.01648132 58.08776855 944.08383179 C30.04214994 946.41663396 1.42245218 946.54269186 -26.54345703 943.26074219 C-28.42488486 943.06333892 -30.3063976 942.86674337 -32.18798828 942.67089844 C-126.21120687 932.37120061 -218.15119656 892.30133086 -302.54345703 818.26074219 C-303.42904297 817.46796875 -304.31462891 816.67519531 -305.22705078 815.85839844 C-311.43420369 810.2576431 -317.4334919 804.47452127 -323.35595703 798.57324219 C-324.06115479 797.87263672 -324.76635254 797.17203125 -325.49291992 796.45019531 C-329.48537715 792.44596648 -333.2990545 788.34020622 -336.99145508 784.05786133 C-338.96512722 781.77247504 -341.00360854 779.54956936 -343.04345703 777.32324219 C-347.119833 772.79545546 -350.86423225 768.11285077 -354.54345703 763.26074219 C-355.50996681 762.011318 -356.47750778 760.76269116 -357.44580078 759.51464844 C-406.82580467 695.70313818 -440.60081428 621.1384381 -453.54345703 541.26074219 C-453.7505127 540.02638428 -453.95756836 538.79202637 -454.17089844 537.52026367 C-457.84961727 515.18763896 -459.02299247 493.13781585 -458.98095703 470.51074219 C-458.98081604 469.26502441 -458.98067505 468.01930664 -458.98052979 466.73583984 C-458.95523885 453.14766848 -458.57106496 439.61537803 -457.64111328 426.05761719 C-457.56436874 424.91883118 -457.48762421 423.78004517 -457.40855408 422.60675049 C-456.96771496 416.78129684 -456.23966338 411.1734136 -455.00361633 405.46386719 C-454.37382588 402.44859162 -454.02240131 399.4213814 -453.67236328 396.36230469 C-452.46278406 387.00713036 -450.51484144 377.84224023 -448.48095703 368.63574219 C-448.18558548 367.29246857 -448.18558548 367.29246857 -447.88424683 365.92205811 C-444.29753949 349.71739962 -439.98012357 333.95475358 -434.54345703 318.26074219 C-434.1504541 317.12008301 -433.75745117 315.97942383 -433.35253906 314.80419922 C-427.67646522 298.51265476 -421.04577687 282.79145025 -413.54345703 267.26074219 C-413.18010254 266.50760742 -412.81674805 265.75447266 -412.44238281 264.97851562 C-410.5335048 261.04745137 -408.57497877 257.14479193 -406.57226562 253.26074219 C-405.85152147 251.85961828 -405.13614803 250.45572467 -404.42480469 249.04980469 C-398.147892 236.64735599 -391.14775392 224.8919069 -383.54345703 213.26074219 C-382.68928683 211.93912989 -381.83511999 210.61751542 -380.98095703 209.29589844 C-375.34191497 200.64203413 -369.2643574 192.35869762 -362.98974609 184.15673828 C-361.62019316 182.36133854 -360.26362446 180.55692877 -358.91064453 178.74902344 C-354.17899337 172.46065446 -349.20141212 166.51530593 -343.84814453 160.74511719 C-341.85217191 158.59352636 -339.90452725 156.41433691 -337.98095703 154.19824219 C-336.8353387 152.88555452 -335.68949774 151.57306112 -334.54345703 150.26074219 C-333.90408203 149.52726563 -333.26470703 148.79378906 -332.60595703 148.03808594 C-324.24578923 138.5867933 -315.40427111 129.29301097 -305.75830078 121.13574219 C-303.93737284 119.59421588 -302.1453336 118.03026518 -300.35986328 116.44824219 C-273.39620248 92.64321303 -243.7771229 72.97947026 -212.54345703 55.26074219 C-211.78597168 54.83019531 -211.02848633 54.39964844 -210.24804688 53.95605469 C-191.0873449 43.16995941 -170.57765153 34.64350363 -149.93920898 27.13427734 C-148.26263191 26.52296656 -146.58954476 25.9020378 -144.91918945 25.27392578 C-135.04412088 21.59289033 -124.93474013 18.88221954 -114.76757812 16.13671875 C-111.87100101 15.34973415 -108.98268725 14.53783012 -106.09423828 13.72167969 C-92.8165616 10.08392698 -79.36549006 7.73082001 -65.79345703 5.51074219 C-64.89065002 5.36185547 -63.98784302 5.21296875 -63.05767822 5.05957031 C-41.9419585 1.60434925 -21.41483203 -0.07356132 0 0 Z " fill="#FD6003" transform="translate(618.54345703125,139.7392578125)"/>
<path d="M0 0 C1.33691425 -0.00143093 2.67382833 -0.00302849 4.01074219 -0.00478554 C11.0340212 -0.01398079 18.05728157 -0.01812927 25.08056641 -0.01733398 C30.77558238 -0.01680527 36.47052902 -0.02377323 42.16552734 -0.0378418 C176.25894434 -0.36170747 176.25894434 -0.36170747 194.49609375 14.92578125 C205.06074749 25.73524872 211.45235453 41.338036 218.66845703 54.49316406 C220.66306873 58.12755413 222.67195361 61.75392093 224.68359375 65.37890625 C228.70565275 72.63057306 232.70600278 79.89395259 236.6875 87.16796875 C237.04166992 87.81489685 237.39583984 88.46182495 237.76074219 89.12835693 C239.90814294 93.05416405 242.04667521 96.98462074 244.17431641 100.9211731 C244.84506072 102.16033281 245.51788447 103.3983694 246.19287109 104.63522339 C247.12423006 106.34336582 248.0467136 108.05633862 248.96875 109.76953125 C249.49533203 110.74229004 250.02191406 111.71504883 250.56445312 112.71728516 C251.6875 115.16796875 251.6875 115.16796875 251.6875 118.16796875 C110.4475 118.16796875 -30.7925 118.16796875 -176.3125 118.16796875 C-175.47710414 113.99098943 -174.70828368 111.62937229 -172.79296875 107.984375 C-172.27178467 106.98631836 -171.75060059 105.98826172 -171.21362305 104.95996094 C-170.36537964 103.3613623 -170.36537964 103.3613623 -169.5 101.73046875 C-168.91323486 100.61446289 -168.32646973 99.49845703 -167.72192383 98.34863281 C-162.57392754 88.58841396 -157.32050733 78.88726594 -151.99462891 69.22314453 C-150.45387211 66.42473661 -148.91794222 63.62372434 -147.38343811 60.82188416 C-143.05542269 52.9210348 -138.69366424 45.03945264 -134.3125 37.16796875 C-133.79848633 36.23855469 -133.28447266 35.30914062 -132.75488281 34.3515625 C-125.55187253 21.37912645 -118.88559867 11.3976293 -104.3125 6.16796875 C-94.88714342 3.69934492 -84.99940045 3.42407597 -75.31958008 2.7902832 C-72.54394033 2.6083489 -69.7690497 2.41733539 -66.99414062 2.22460938 C-65.15628689 2.09971644 -63.31839713 1.97535223 -61.48046875 1.8515625 C-60.2916938 1.77028358 -60.2916938 1.77028358 -59.0789032 1.68736267 C-56.15753523 1.49751224 -53.23554499 1.33019923 -50.3125 1.16796875 C-49.59194553 1.12688303 -48.87139107 1.08579731 -48.12900162 1.04346657 C-32.08365428 0.14969031 -16.06730673 0.00459781 0 0 Z " fill="#FDFDFD" transform="translate(589.3125,416.83203125)"/>
<path d="M0 0 C0.89101457 -0.00521549 1.78202914 -0.01043099 2.70004416 -0.01580453 C4.17754699 -0.00911236 4.17754699 -0.00911236 5.68489838 -0.002285 C6.72650195 -0.00540498 7.76810552 -0.00852497 8.84127283 -0.01173949 C12.35443071 -0.01975858 15.86741772 -0.01338064 19.38057709 -0.00710678 C21.88991142 -0.00981491 24.39924495 -0.01337483 26.90857697 -0.0177269 C33.03047387 -0.02592307 39.15230682 -0.02469139 45.27420461 -0.01890162 C50.24792406 -0.01439177 55.22162975 -0.01376928 60.19535065 -0.01594925 C60.90221934 -0.01625572 61.60908803 -0.01656218 62.33737698 -0.01687793 C63.77319746 -0.01751736 65.20901793 -0.01816579 66.64483839 -0.01882312 C80.12048399 -0.02453137 93.59610241 -0.01796077 107.07174355 -0.00722238 C118.64393996 0.00171358 130.21609625 0.00016168 141.78829193 -0.00905991 C155.2144752 -0.01975381 168.64063464 -0.023982 182.06682158 -0.01783538 C183.49747181 -0.01719825 184.92812204 -0.01656951 186.35877228 -0.01594925 C187.062749 -0.0156407 187.76672571 -0.01533215 188.49203506 -0.01501425 C193.46195303 -0.01328466 198.43185592 -0.01620807 203.40177155 -0.02090836 C210.08623305 -0.02709098 216.77060681 -0.02271306 223.45506477 -0.01111984 C225.91498755 -0.00846504 228.37491668 -0.00925221 230.83483696 -0.01364517 C234.17972063 -0.01906982 237.52435686 -0.0123041 240.86922455 -0.002285 C241.85422644 -0.00674645 242.83922833 -0.01120789 243.85407877 -0.01580453 C244.74509334 -0.01058903 245.63610791 -0.00537354 246.55412292 0 C247.32690881 0.0003247 248.0996947 0.00064941 248.89589834 0.00098395 C250.77706146 0.25168228 250.77706146 0.25168228 252.77706146 2.25168228 C253.31275861 7.7381768 252.2182305 11.23803557 249.78487396 16.12277603 C249.13801296 17.44420284 248.49120514 18.76565568 247.84444427 20.0871315 C247.50449432 20.76926712 247.16454437 21.45140274 246.81429291 22.15420914 C245.43256598 24.94831564 244.10591901 27.76707413 242.77797699 30.58703995 C241.42745982 33.44852327 240.05805536 36.30077789 238.68770599 39.15280533 C237.99032666 40.60822712 237.29637914 42.06529771 236.60567474 43.52389908 C235.58506297 45.67807287 234.55335638 47.82661685 233.51924896 49.97433853 C233.2170343 50.61814972 232.91481964 51.26196091 232.60344696 51.92528152 C229.46981375 58.37269975 225.61307778 63.12229176 219.52706146 67.00168228 C218.21995209 67.86019791 218.21995209 67.86019791 216.88643646 68.73605728 C207.96590859 73.08425428 198.3571891 72.54937703 188.6757431 72.54220963 C187.05519046 72.5482023 185.43464066 72.55500954 183.81409454 72.56256485 C179.43391503 72.58015317 175.05381376 72.58491709 170.67360234 72.58619642 C167.93250617 72.58762223 165.19142964 72.59189987 162.45033836 72.59719086 C152.87506989 72.61566482 143.29985693 72.62386445 133.72457123 72.62228775 C124.81822552 72.62108588 115.91212194 72.6422039 107.0058375 72.67377508 C99.34100813 72.69997129 91.67625772 72.7106537 84.01138395 72.70937693 C79.44143511 72.70886844 74.87170185 72.71448939 70.30179787 72.73573303 C66.00310947 72.75517293 61.70484115 72.75520088 57.40613747 72.74069977 C55.83485547 72.73861794 54.26354676 72.74327501 52.69231033 72.75542068 C39.49931605 72.85074439 30.62424789 70.89413313 20.95284271 61.58371353 C17.92755744 58.34117258 15.7978657 55.18823366 13.77706146 51.25168228 C13.47558197 50.67466568 13.17410248 50.09764908 12.86348724 49.50314713 C9.14491647 42.36327763 5.6282774 35.22453869 2.77706146 27.68918228 C1.14413339 23.70892012 -0.86721319 19.92328009 -2.85575104 16.11105728 C-5.02104394 11.58250185 -6.78717619 7.32982111 -6.22293854 2.25168228 C-3.8147538 -0.15650246 -3.28586705 0.00138064 0 0 Z " fill="#FBFCFC" transform="translate(503.22293853759766,678.7483177185059)"/>
<path d="M0 0 C0.65838867 0.21350098 1.31677734 0.42700195 1.99511719 0.64697266 C26.24010585 8.71056923 48.06126329 21.95391589 67 39 C68.04934409 39.92723622 69.09882408 40.85431867 70.1484375 41.78125 C76.53780023 47.47633395 82.48837315 53.44174018 88 60 C88.66273926 60.77029541 88.66273926 60.77029541 89.33886719 61.55615234 C99.4375 73.38005611 99.4375 73.38005611 99.4375 79.93359375 C98.30219007 85.29590581 95.56750343 88.90956283 91.125 92 C87.43192689 93.1817834 84.85729955 93.48216244 81 93 C75.99207424 90.20125394 73.02095288 86.88949653 69.6875 82.375 C68.72917835 81.1190934 67.76821291 79.8652 66.8046875 78.61328125 C66.33256836 77.9992041 65.86044922 77.38512695 65.37402344 76.75244141 C59.90692731 69.7796596 53.83287018 63.61871178 47 58 C46.28714844 57.38769531 45.57429687 56.77539062 44.83984375 56.14453125 C27.77591036 41.87235992 7.18058053 31.55675701 -14 25 C-14.83837402 24.74025391 -15.67674805 24.48050781 -16.54052734 24.21289062 C-30.39312681 20.15897963 -44.10775788 19.52895365 -58.4375 19.5 C-59.70247818 19.49312668 -59.70247818 19.49312668 -60.99301147 19.4861145 C-76.32791409 19.45308324 -91.00077686 21.11108468 -105.5625 26.1875 C-106.43600098 26.48503174 -107.30950195 26.78256348 -108.20947266 27.08911133 C-117.14359641 30.23308211 -125.71590539 34.22220122 -133.83886719 39.10546875 C-138.76941768 42.06010575 -142.34659489 43.3360781 -148 42 C-152.20272726 39.52780749 -155.13330678 36.52585055 -157 32 C-157.48510688 26.76084565 -157.0424106 23.33313025 -154 19 C-112.15560642 -13.90753279 -48.57808495 -15.79539923 0 0 Z " fill="#FD6206" transform="translate(928,239)"/>
<path d="M0 0 C5.23788986 3.7413499 7.92125961 7.73851077 9.625 13.875 C10.04882565 18.11895504 9.9951991 22.36179674 10 26.625 C10.02449219 27.75421875 10.04898438 28.8834375 10.07421875 30.046875 C10.10781329 39.72210286 7.9538285 48.31556595 1.625 55.875 C-3.38945358 59.6857524 -8.28887615 61.82683015 -14.4375 63 C-15.60865356 63.23746948 -15.60865356 63.23746948 -16.8034668 63.47973633 C-28.7756124 65.72458424 -41.02246776 66.54471428 -53.1496582 67.54956055 C-56.25857812 67.86325294 -59.29466906 68.35727158 -62.375 68.875 C-76.26947534 70.32112815 -90.28423775 71.0738252 -104.25 71.25 C-105.79844604 71.28879272 -105.79844604 71.28879272 -107.37817383 71.32836914 C-113.35528457 71.34382676 -116.84323393 70.89825107 -121.375 66.875 C-123.68328404 62.25843191 -122.93837322 56.07376521 -121.69140625 51.20703125 C-117.0138122 38.68815922 -108.687641 31.25792615 -96.94238281 25.48486328 C-90.38590283 22.52610137 -83.60950415 20.21364834 -76.8125 17.875 C-75.28441069 17.34377766 -73.75641669 16.81228111 -72.22851562 16.28051758 C-61.67034046 12.61766281 -51.10787225 8.99633726 -40.375 5.875 C-39.34375 5.57190918 -38.3125 5.26881836 -37.25 4.95654297 C-33.7969901 3.95123002 -30.33755291 2.97189775 -26.875 2 C-25.79992187 1.68893311 -24.72484375 1.37786621 -23.6171875 1.05737305 C-15.76660003 -1.09216358 -7.89701552 -2.63233851 0 0 Z " fill="#FCFCFC" transform="translate(901.375,617.125)"/>
<path d="M0 0 C0.91330078 0.24427734 1.82660156 0.48855469 2.76757812 0.74023438 C17.26991428 4.68271392 31.53724707 9.46911556 45.76757812 14.28662109 C47.54966125 14.88792749 49.33320371 15.48492584 51.11816406 16.07763672 C86.68065735 27.89062581 86.68065735 27.89062581 95.3125 44.625 C98.00929655 50.35569267 99.36375983 54.91788603 98.8125 61.3125 C97.11914721 64.63648882 95.93275362 66.72879603 92.59106445 68.4699707 C89.27377519 69.47585465 86.50935756 69.53025488 83.04296875 69.48046875 C82.38926804 69.47226608 81.73556732 69.46406342 81.0620575 69.45561218 C73.41033654 69.33554578 65.76641347 69.02890491 58.125 68.625 C57.35268036 68.58437439 56.58036072 68.54374878 55.78463745 68.50189209 C41.93507976 67.74677762 28.15974028 66.46006595 14.375 64.9375 C13.44660309 64.83853424 12.51820618 64.73956848 11.56167603 64.63760376 C-20.20407872 61.21210976 -20.20407872 61.21210976 -29.1875 50.3125 C-34.04243052 41.85552425 -34.54924443 31.74476531 -34.5625 22.1875 C-34.58699219 21.25035156 -34.61148437 20.31320312 -34.63671875 19.34765625 C-34.669738 11.47806846 -32.7944813 6.30099076 -27.625 0.375 C-20.15286875 -5.9475726 -8.51480017 -2.40674034 0 0 Z " fill="#FCFCFC" transform="translate(376.1875,618.6875)"/>
<path d="M0 0 C0.88123535 0.49935059 0.88123535 0.49935059 1.78027344 1.00878906 C17.93474352 10.26706519 38.40755854 24.81511707 47 42 C47.49433314 47.03247344 47.81849917 51.48892461 45.375 56 C41.55174049 59.21958695 38.49193615 60.81350798 33.5 61.4375 C25.44090568 60.43011321 22.07057317 54.80595589 17.26171875 48.796875 C4.59146835 33.12865517 -13.51682155 23.04591746 -32.375 16.625 C-33.11218262 16.37387451 -33.84936523 16.12274902 -34.60888672 15.86401367 C-53.46851165 9.7653734 -76.61948239 10.93758238 -95 18 C-96.20527344 18.45375 -97.41054688 18.9075 -98.65234375 19.375 C-102.70393895 20.99371104 -106.36543092 22.57695394 -110 25 C-114.56895843 25.7566428 -119.10609287 26.04593826 -123.2421875 23.76171875 C-126.74649894 20.83176541 -128.69025784 18.66581367 -129.23828125 13.94921875 C-129.36451315 10.10246763 -129.16902694 7.41049399 -127.6875 3.8125 C-116.97820957 -7.39489696 -97.73657253 -11.84562937 -83 -15 C-82.1028125 -15.1959375 -81.205625 -15.391875 -80.28125 -15.59375 C-52.61594823 -19.01897784 -24.16745647 -13.83053681 0 0 Z " fill="#FD6207" transform="translate(932,310)"/>
<path d="M0 0 C3.87038853 2.79835634 7.47556253 5.77899092 11 9 C11.59296875 9.5259375 12.1859375 10.051875 12.796875 10.59375 C15.50555052 13.33286008 16.34838061 15.70300598 16.5625 19.4375 C16.21482417 25.16449359 14.15638833 29.09005605 9.8125 32.9375 C5.77182084 34.46397879 2.25907314 34.78302547 -2 34 C-5.77923938 32.17060723 -8.50402602 29.52207787 -11.375 26.5 C-19.27340494 18.97770958 -28.79075139 16.59866721 -39.4609375 16.796875 C-42.06651417 17.00532113 -44.50910178 17.44663197 -47.0625 18 C-53.27387511 19.34563542 -58.51497272 20.19649462 -64.375 17.375 C-68.34649089 13.78174634 -69.77501477 10.79988182 -70.4375 5.5 C-69.83347068 0.66776544 -67.89518842 -2.27988672 -64.30859375 -5.53515625 C-45.46283627 -17.49312419 -17.54288001 -10.92431799 0 0 Z " fill="#FD6307" transform="translate(908,371)"/>
<path d="M0 0 C7.26 0 14.52 0 22 0 C22 0.66 22 1.32 22 2 C25.3 2 28.6 2 32 2 C32 2.33 32 2.66 32 3 C21.11 3 10.22 3 -1 3 C-0.67 2.01 -0.34 1.02 0 0 Z " fill="#2B2E32" transform="translate(886,492)"/>
<path d="M0 0 C-0.33 2.31 -0.66 4.62 -1 7 C-1.99 6.34 -2.98 5.68 -4 5 C-4.99 5.66 -5.98 6.32 -7 7 C-9.6875 7.125 -9.6875 7.125 -12 7 C-3.55172414 0 -3.55172414 0 0 0 Z " fill="#FD7227" transform="translate(1074,752)"/>
<path d="M0 0 C0 0.66 0 1.32 0 2 C-3.92857754 3.85131483 -6.98775112 4.22004943 -11.3125 4.125 C-12.38113281 4.10695312 -13.44976563 4.08890625 -14.55078125 4.0703125 C-15.35902344 4.04710937 -16.16726563 4.02390625 -17 4 C-14.19547298 2.48300584 -11.6142698 1.54691437 -8.5 0.875 C-7.7471875 0.70742187 -6.994375 0.53984375 -6.21875 0.3671875 C-4 0 -4 0 0 0 Z " fill="#FC6925" transform="translate(535,149)"/>
<path d="M0 0 C4.52615993 3.67832017 8.39424999 7.41086363 12 12 C8 12 8 12 6.11328125 10.13671875 C5.51902344 9.32847656 4.92476562 8.52023437 4.3125 7.6875 C3.71050781 6.88699219 3.10851562 6.08648438 2.48828125 5.26171875 C1 3 1 3 0 0 Z " fill="#292C2F" transform="translate(897,559)"/>
<path d="M0 0 C8.25 0.33 16.5 0.66 25 1 C25 1.33 25 1.66 25 2 C18.4 2.33 11.8 2.66 5 3 C5 2.67 5 2.34 5 2 C3.35 1.67 1.7 1.34 0 1 C0 0.67 0 0.34 0 0 Z " fill="#57595D" transform="translate(426,686)"/>
<path d="M0 0 C-0.33 0.66 -0.66 1.32 -1 2 C-3.28515625 2.6328125 -3.28515625 2.6328125 -6.0625 3.125 C-6.98160156 3.29257812 -7.90070312 3.46015625 -8.84765625 3.6328125 C-9.91306641 3.81457031 -9.91306641 3.81457031 -11 4 C-11.33 3.01 -11.66 2.02 -12 1 C-7.58774263 -0.47075246 -4.51718381 -1.36884358 0 0 Z " fill="#FD681B" transform="translate(732,1011)"/>
<path d="M0 0 C0.66 0.33 1.32 0.66 2 1 C-1.64751781 6.08441876 -3.85169289 7.79444959 -10 9 C-6.83047153 5.73991357 -3.60062011 2.77762123 0 0 Z " fill="#FD671F" transform="translate(895,925)"/>
<path d="M0 0 C-1.32 0.33 -2.64 0.66 -4 1 C-4 1.66 -4 2.32 -4 3 C-10.93 2.505 -10.93 2.505 -18 2 C-18 1.67 -18 1.34 -18 1 C-11.96445452 0.30739642 -6.07593562 -0.11251733 0 0 Z " fill="#5C5E61" transform="translate(863,683)"/>
<path d="M0 0 C0.99 0.33 1.98 0.66 3 1 C1.35 4.3 -0.3 7.6 -2 11 C-2.66 10.67 -3.32 10.34 -4 10 C-4 9.34 -4 8.68 -4 8 C-3.34 8 -2.68 8 -2 8 C-1.855625 6.865625 -1.71125 5.73125 -1.5625 4.5625 C-1 1 -1 1 0 0 Z " fill="#FD6517" transform="translate(266,426)"/>
<path d="M0 0 C0.66 0.66 1.32 1.32 2 2 C-0.31 4.31 -2.62 6.62 -5 9 C-5.66 8.34 -6.32 7.68 -7 7 C-4.69 4.69 -2.38 2.38 0 0 Z " fill="#2C2F32" transform="translate(452,412)"/>
<path d="M0 0 C5.77759884 -0.12036664 11.27959989 0.1679418 17 1 C17 1.33 17 1.66 17 2 C11.555 2.495 11.555 2.495 6 3 C6 2.67 6 2.34 6 2 C3.03 1.505 3.03 1.505 0 1 C0 0.67 0 0.34 0 0 Z " fill="#4A4C50" transform="translate(389,683)"/>
<path d="M0 0 C0.66 0.66 1.32 1.32 2 2 C-1.19990508 4.74277578 -4.00499382 6.6302836 -8 8 C-5.33333333 5.33333333 -2.66666667 2.66666667 0 0 Z " fill="#FD6218" transform="translate(329,247)"/>
<path d="M0 0 C0.99 0 1.98 0 3 0 C3.66 2.64 4.32 5.28 5 8 C3.68 7.67 2.36 7.34 1 7 C0.67 4.69 0.34 2.38 0 0 Z " fill="#36393C" transform="translate(494,682)"/>
<path d="M0 0 C0.99 0.33 1.98 0.66 3 1 C2.0479279 2.00596297 1.08812654 3.00461563 0.125 4 C-0.40867187 4.556875 -0.94234375 5.11375 -1.4921875 5.6875 C-3 7 -3 7 -5 7 C-3.70700306 4.11562221 -2.34058637 2.12780579 0 0 Z " fill="#272A2E" transform="translate(356,558)"/>
<path d="M0 0 C1.8871875 0.061875 1.8871875 0.061875 3.8125 0.125 C2.8125 1.6875 2.8125 1.6875 0.8125 3.125 C-1.95364782 3.09226452 -4.44780547 2.61904328 -7.1875 2.125 C-4.09861478 0.06574319 -3.47814073 -0.1140374 0 0 Z " fill="#23272B" transform="translate(422.1875,685.875)"/>
<path d="M0 0 C2.33094534 0.3496418 4.66404762 0.68554487 7 1 C7 1.33 7 1.66 7 2 C5.20866022 2.05391993 3.41686101 2.09275571 1.625 2.125 C0.62726562 2.14820313 -0.37046875 2.17140625 -1.3984375 2.1953125 C-4 2 -4 2 -6 0 C-3.41583797 -1.29208102 -2.76017944 -0.74599444 0 0 Z " fill="#35383C" transform="translate(929,547)"/>
<path d="M0 0 C5.28 0.33 10.56 0.66 16 1 C16 1.33 16 1.66 16 2 C10.03654233 3.0006709 5.71271093 3.0662997 0 1 C0 0.67 0 0.34 0 0 Z " fill="#FD6F22" transform="translate(574,142)"/>
<path d="M0 0 C2.29633824 3.44450737 2.54016485 5.93812283 3 10 C2.67 9.34 2.34 8.68 2 8 C1.34 8 0.68 8 0 8 C0 5.36 0 2.72 0 0 Z " fill="#4D4F53" transform="translate(946,622)"/>
<path d="M0 0 C0.66 0 1.32 0 2 0 C2 1.98 2 3.96 2 6 C0.02 6.99 0.02 6.99 -2 8 C-1.34 5.36 -0.68 2.72 0 0 Z " fill="#3B3F42" transform="translate(873,517)"/>
<path d="M0 0 C3.68754757 0.49831724 5.60490662 1.10067643 8 4 C5.69 3.67 3.38 3.34 1 3 C0.67 2.01 0.34 1.02 0 0 Z " fill="#FD6315" transform="translate(931,311)"/>
<path d="M0 0 C0.928125 0.20625 1.85625 0.4125 2.8125 0.625 C-0.1875 2.625 -0.1875 2.625 -3.375 2.25 C-4.303125 2.04375 -5.23125 1.8375 -6.1875 1.625 C-3.1875 -0.375 -3.1875 -0.375 0 0 Z " fill="#FD6B1E" transform="translate(513.1875,154.375)"/>
</svg>
